<svg xmlns="http://www.w3.org/2000/svg" xmlns:xlink="http://www.w3.org/1999/xlink" viewBox="0 0 500 500"><defs><style>.cls-1{fill:none;}.cls-2{fill:#e2e5eb;}.cls-3{fill:url(#New_Pattern);}</style><pattern id="New_Pattern" data-name="New Pattern" width="500" height="500" patternUnits="userSpaceOnUse" viewBox="0 0 500 500"><rect class="cls-1" width="500" height="500"/><path class="cls-2" d="M33.2,458.77a4.93,4.93,0,0,0-.47,5l4.83,10.49a5,5,0,0,0,8.62.8l6.67-9.42a5,5,0,0,0-3.61-7.87l-11.5-1.06A4.92,4.92,0,0,0,33.2,458.77Zm10.26,14.34a1.67,1.67,0,0,1-2.87-.27l-4.83-10.49A1.67,1.67,0,0,1,37.43,460l11.5,1.06a1.65,1.65,0,0,1,1.36,1,1.63,1.63,0,0,1-.16,1.66l-6.67,9.43Z"/><path class="cls-2" d="M451.71,16.35l-11.51.91a5,5,0,0,0-4.12,2.83h0a5,5,0,0,0,.39,5L443,34.59a5,5,0,0,0,8.63-.68l5-10.42a5,5,0,0,0-4.91-7.14Z"/><path class="cls-2" d="M159.8,73l-7.22-9a5,5,0,0,0-4.66-1.81h0a4.93,4.93,0,0,0-3.9,3.13l-4.19,10.76a5,5,0,0,0,5.42,6.75l11.41-1.75A5,5,0,0,0,159.8,73Z"/><path class="cls-2" d="M209.24,244.1l8.95-7.3a4.94,4.94,0,0,0,1.77-4.67h0a5,5,0,0,0-3.16-3.88L206,224.16a5,5,0,0,0-6.71,5.47l1.85,11.4a5,5,0,0,0,8.09,3.07Z"/><path class="cls-2" d="M415.87,183.67l-5.77-10a4.93,4.93,0,0,0-4.33-2.5h0a4.93,4.93,0,0,0-4.33,2.5l-5.77,10a5,5,0,0,0,4.33,7.5h11.54a5,5,0,0,0,4.33-7.5Z"/><path class="cls-2" d="M76.19,301.09l-11.36-2a5,5,0,0,0-4.71,1.7h0a5,5,0,0,0-.88,4.92l3.93,10.86a5,5,0,0,0,8.53,1.52l7.44-8.83a5,5,0,0,0-3-8.14Z"/><path class="cls-2" d="M473.44,392.56l-5.78-10a5,5,0,0,0-4.33-2.5h0a5,5,0,0,0-4.33,2.5l-5.77,10a5,5,0,0,0,4.33,7.5h11.55a5,5,0,0,0,4.33-7.5Z"/><path class="cls-2" d="M259.34,419.66l-3.51-11a5,5,0,0,0-3.7-3.37h0a5,5,0,0,0-4.76,1.52l-7.77,8.54a5,5,0,0,0,2.63,8.25l11.28,2.46a5,5,0,0,0,5.83-6.4Z"/><path class="cls-2" d="M364.44,323.13a4.94,4.94,0,0,0-3.21-3.83l-10.85-4a5,5,0,0,0-6.64,5.56l2,11.37a5,5,0,0,0,8.13,3l8.85-7.41A5,5,0,0,0,364.44,323.13ZM347,320.32a1.67,1.67,0,0,1,2.21-1.85l10.84,4a1.67,1.67,0,0,1,.5,2.84l-8.85,7.42a1.63,1.63,0,0,1-1.64.29A1.66,1.66,0,0,1,349,331.7l-2-11.38Z"/><path class="cls-2" d="M323.73,93.75a4.94,4.94,0,0,0,.68-5l-4.35-10.7a5,5,0,0,0-8.58-1.18L304.39,86a5,5,0,0,0,3.27,8l11.44,1.58A5,5,0,0,0,323.73,93.75ZM314.11,79a1.63,1.63,0,0,1,1.54-.63,1.65,1.65,0,0,1,1.32,1l4.35,10.7a1.66,1.66,0,0,1-1.77,2.28l-11.44-1.58A1.67,1.67,0,0,1,307,88.09L314.11,79Z"/><path class="cls-2" d="M105.86,180.77A4.92,4.92,0,0,0,107,175.9l-3.34-11.05a5,5,0,0,0-8.43-2l-7.9,8.42a5,5,0,0,0,2.5,8.29l11.25,2.63A4.94,4.94,0,0,0,105.86,180.77Zm-8.2-15.61a1.67,1.67,0,0,1,2.81.66l3.34,11.05a1.66,1.66,0,0,1-2,2.1l-11.25-2.63a1.67,1.67,0,0,1-.83-2.76l7.9-8.42Z"/></pattern></defs><title>HocusBGAsset 1</title><g id="Layer_2" data-name="Layer 2"><g id="Layer_1-2" data-name="Layer 1"><rect class="cls-3" width="500" height="500"/></g></g></svg>