<svg xmlns="http://www.w3.org/2000/svg" xmlns:xlink="http://www.w3.org/1999/xlink" viewBox="0 0 500 500"><defs><style>.cls-1{fill:none;}.cls-2{fill:#f4f4f4;stroke:#f4f4f4;stroke-miterlimit:10;stroke-width:1.09px;}.cls-3{fill:url(#_Pattern);}</style><pattern id="_Pattern" data-name="? Pattern" width="500" height="500" patternUnits="userSpaceOnUse" viewBox="0 0 500 500"><rect class="cls-1" width="500" height="500"/><path class="cls-2" d="M402.46,501.1a10.52,10.52,0,0,1,.58-1.48,9.08,9.08,0,0,1,2.07-2.79,9.46,9.46,0,0,1,1.62-1.2,8.59,8.59,0,0,1,2.51-1,6,6,0,0,1,2.38-.07,5,5,0,0,1,2.08.87,5.83,5.83,0,0,1,1.64,1.8,6.15,6.15,0,0,1,.83,2.1,6.36,6.36,0,0,1,0,1.89,7,7,0,0,1-.43,1.66c-.21.52-.41,1-.59,1.47a9.48,9.48,0,0,0-.42,1.28,1.78,1.78,0,0,0,.05,1.1l.94,2.32-2.45,1.48-1.67-2.22a2.27,2.27,0,0,1-.52-1.32,4,4,0,0,1,.19-1.39,10.07,10.07,0,0,1,.55-1.46,10.86,10.86,0,0,0,.57-1.53,5.26,5.26,0,0,0,.21-1.57,3.31,3.31,0,0,0-.5-1.61,2.5,2.5,0,0,0-1.73-1.2,2.8,2.8,0,0,0-1.11.05,3.63,3.63,0,0,0-1.15.47,5.47,5.47,0,0,0-1.29,1,6.22,6.22,0,0,0-.73,1c-.18.31-.32.58-.43.81a1,1,0,0,1-.39.48.91.91,0,0,1-1,0Zm13,15.47a2.57,2.57,0,0,1-.34-1,2.43,2.43,0,0,1,0-1,2.64,2.64,0,0,1,.42-.88,2.59,2.59,0,0,1,.77-.7,2.51,2.51,0,0,1,1-.34,2.62,2.62,0,0,1,1,0,2.35,2.35,0,0,1,.89.42,2.48,2.48,0,0,1,.69.75,2.52,2.52,0,0,1,.35,1,2.55,2.55,0,0,1-.48,1.85,2.82,2.82,0,0,1-1.74,1,2.42,2.42,0,0,1-1,0,2.5,2.5,0,0,1-.87-.42A2.54,2.54,0,0,1,415.48,516.57Z"/><path class="cls-2" d="M310,74.09a12,12,0,0,1,1.45-.65A9.51,9.51,0,0,1,313.1,73a8.79,8.79,0,0,1,1.8-.12,9.8,9.8,0,0,1,2,.28,8.37,8.37,0,0,1,2.52,1,6.17,6.17,0,0,1,1.75,1.61,5.35,5.35,0,0,1,.88,2.08,6.49,6.49,0,0,1-1,4.51,6.09,6.09,0,0,1-1.28,1.38,7.27,7.27,0,0,1-1.48.89l-1.45.64a9.54,9.54,0,0,0-1.2.62,1.77,1.77,0,0,0-.72.82L314,89.05l-2.79-.66.36-2.75a2.3,2.3,0,0,1,.54-1.31,4.25,4.25,0,0,1,1.12-.87,10.19,10.19,0,0,1,1.41-.65,11,11,0,0,0,1.47-.7,5.17,5.17,0,0,0,1.25-1,3.25,3.25,0,0,0,.77-1.5,2.66,2.66,0,0,0,0-1.12,2.41,2.41,0,0,0-.43-1,2.83,2.83,0,0,0-.82-.75,4.07,4.07,0,0,0-1.15-.46,5.28,5.28,0,0,0-1.64-.17,5.75,5.75,0,0,0-1.22.2c-.34.1-.63.19-.87.28a1.15,1.15,0,0,1-.61.07.92.92,0,0,1-.74-.7Zm-1.5,20.17a2.61,2.61,0,0,1,.42-.93,2.5,2.5,0,0,1,.71-.67,2.76,2.76,0,0,1,.91-.34,2.61,2.61,0,0,1,1,0,2.48,2.48,0,0,1,.93.43,2.57,2.57,0,0,1,1,1.64,2.64,2.64,0,0,1-.47,1.95,2.34,2.34,0,0,1-.72.65,2.43,2.43,0,0,1-.91.33,2.72,2.72,0,0,1-2-.46,2.5,2.5,0,0,1-.67-.71,2.31,2.31,0,0,1-.33-.91A2.52,2.52,0,0,1,308.52,94.26Z"/><path class="cls-2" d="M123.48,42.28a12.78,12.78,0,0,1,.9-1.31,9.42,9.42,0,0,1,1.16-1.21,9.77,9.77,0,0,1,1.48-1,10.85,10.85,0,0,1,1.85-.81,8.8,8.8,0,0,1,2.68-.45,6.14,6.14,0,0,1,2.34.46,5.17,5.17,0,0,1,1.83,1.32,5.93,5.93,0,0,1,1.2,2.12,6.19,6.19,0,0,1,.33,2.23,6,6,0,0,1-.38,1.85,7.06,7.06,0,0,1-.79,1.52l-.9,1.3a10.22,10.22,0,0,0-.7,1.16,1.67,1.67,0,0,0-.19,1.08l.4,2.48-2.72.89-1.13-2.54a2.2,2.2,0,0,1-.22-1.4,4.24,4.24,0,0,1,.49-1.32,13.39,13.39,0,0,1,.87-1.3,11,11,0,0,0,.89-1.36,5,5,0,0,0,.56-1.48,3.17,3.17,0,0,0-.13-1.68,2.56,2.56,0,0,0-.55-1,2.73,2.73,0,0,0-.87-.59,2.94,2.94,0,0,0-1.09-.2,3.8,3.8,0,0,0-1.22.2,5.6,5.6,0,0,0-1.49.71,6,6,0,0,0-.93.8c-.24.27-.44.5-.6.7a1,1,0,0,1-.49.38.91.91,0,0,1-1-.21Zm9.25,18a2.58,2.58,0,0,1,.12-2,2.76,2.76,0,0,1,.61-.77,2.64,2.64,0,0,1,.9-.5,2.27,2.27,0,0,1,1-.12,2.68,2.68,0,0,1,.94.26,2.47,2.47,0,0,1,.78.6,2.38,2.38,0,0,1,.5.89,2.24,2.24,0,0,1,.12,1,2.39,2.39,0,0,1-.27.93,2.47,2.47,0,0,1-.61.76,2.51,2.51,0,0,1-.89.5,2.63,2.63,0,0,1-1,.13,2.47,2.47,0,0,1-.94-.25,2.72,2.72,0,0,1-.76-.6A2.53,2.53,0,0,1,132.73,60.27Z"/><path class="cls-2" d="M68,142.83a13.34,13.34,0,0,1,1.51-.49,9.06,9.06,0,0,1,3.47-.17,10.36,10.36,0,0,1,2,.5A8.39,8.39,0,0,1,77.38,144a5.84,5.84,0,0,1,1.56,1.79,5.27,5.27,0,0,1,.65,2.16,5.9,5.9,0,0,1-.36,2.41,6,6,0,0,1-1.1,2,6.25,6.25,0,0,1-1.43,1.23,7.29,7.29,0,0,1-1.56.72l-1.51.47a9.13,9.13,0,0,0-1.27.49,1.72,1.72,0,0,0-.81.74l-1.2,2.2-2.7-1,.66-2.69a2.26,2.26,0,0,1,.69-1.24,4,4,0,0,1,1.2-.74,11.66,11.66,0,0,1,1.48-.5,10.37,10.37,0,0,0,1.54-.53,5.16,5.16,0,0,0,1.35-.83,3.31,3.31,0,0,0,.93-1.4,2.71,2.71,0,0,0,.15-1.11,2.51,2.51,0,0,0-.32-1,2.75,2.75,0,0,0-.74-.83,3.67,3.67,0,0,0-1.09-.59,5.16,5.16,0,0,0-1.61-.35,5.88,5.88,0,0,0-1.23.06l-.9.18a1.15,1.15,0,0,1-.61,0,.92.92,0,0,1-.66-.78Zm-3.72,19.88a2.7,2.7,0,0,1,.52-.88,2.41,2.41,0,0,1,.78-.58,2.47,2.47,0,0,1,.95-.24,2.58,2.58,0,0,1,1,.15,2.44,2.44,0,0,1,.88.53,2.81,2.81,0,0,1,.59.79,2.47,2.47,0,0,1,.24,1,2.51,2.51,0,0,1-.15,1,2.38,2.38,0,0,1-.53.88,2.61,2.61,0,0,1-.79.57,2.7,2.7,0,0,1-.94.23,2.79,2.79,0,0,1-1-.16,2.82,2.82,0,0,1-.89-.52,2.41,2.41,0,0,1-.58-.78,2.28,2.28,0,0,1-.23-.94A2.56,2.56,0,0,1,64.32,162.71Z"/><path class="cls-2" d="M198.88,244.41a11.34,11.34,0,0,1,.41-1.54,9.47,9.47,0,0,1,.69-1.53,10.6,10.6,0,0,1,1.05-1.48,9.88,9.88,0,0,1,1.48-1.38,8.64,8.64,0,0,1,2.38-1.31,6.12,6.12,0,0,1,2.35-.34,5.23,5.23,0,0,1,2.17.63,5.66,5.66,0,0,1,1.83,1.61,6.05,6.05,0,0,1,1.06,2,6.58,6.58,0,0,1,.26,1.87,7.27,7.27,0,0,1-.25,1.7l-.42,1.53a9.12,9.12,0,0,0-.27,1.32,1.69,1.69,0,0,0,.18,1.09l1.19,2.2-2.27,1.74-1.91-2a2.19,2.19,0,0,1-.66-1.25,4.46,4.46,0,0,1,0-1.41,12,12,0,0,1,.39-1.51,11,11,0,0,0,.39-1.58,5.59,5.59,0,0,0,0-1.58,3.24,3.24,0,0,0-.68-1.54,2.43,2.43,0,0,0-.85-.73,2.53,2.53,0,0,0-1-.27,2.71,2.71,0,0,0-1.1.17,3.87,3.87,0,0,0-1.08.6,5.35,5.35,0,0,0-1.17,1.16,6,6,0,0,0-.61,1.06c-.14.33-.26.62-.34.86a1,1,0,0,1-.33.52.92.92,0,0,1-1,.13Zm14.69,13.9a2.47,2.47,0,0,1-.21-2.81,2.58,2.58,0,0,1,1.61-1.23,2.89,2.89,0,0,1,1-.07,2.51,2.51,0,0,1,.93.32,2.44,2.44,0,0,1,.77.66,2.51,2.51,0,0,1,.45.93,2.66,2.66,0,0,1,.06,1,2.8,2.8,0,0,1-.32.92,2.64,2.64,0,0,1-.69.77,2.57,2.57,0,0,1-.92.46,2.47,2.47,0,0,1-1,.07,2.35,2.35,0,0,1-.91-.31A2.62,2.62,0,0,1,213.57,258.31Z"/><path class="cls-2" d="M374.83,168.3a13,13,0,0,1,1.38-.78,9.9,9.9,0,0,1,1.58-.59,9.06,9.06,0,0,1,1.79-.28,9.33,9.33,0,0,1,2,.08,8.5,8.5,0,0,1,2.6.77,6,6,0,0,1,1.9,1.44,5.13,5.13,0,0,1,1.07,2,5.76,5.76,0,0,1,.14,2.43,5.85,5.85,0,0,1-.68,2.15,6,6,0,0,1-1.14,1.49,7,7,0,0,1-1.39,1l-1.38.78a9.79,9.79,0,0,0-1.14.73,1.69,1.69,0,0,0-.64.89l-.73,2.4-2.83-.4.09-2.77a2.26,2.26,0,0,1,.42-1.35,4.16,4.16,0,0,1,1-1,11.43,11.43,0,0,1,1.35-.79,10.21,10.21,0,0,0,1.39-.83,5.23,5.23,0,0,0,1.16-1.09,3.27,3.27,0,0,0,.62-1.56,2.59,2.59,0,0,0-.08-1.12,2.64,2.64,0,0,0-.51-.91,3.18,3.18,0,0,0-.89-.66,4.09,4.09,0,0,0-1.2-.35,5.34,5.34,0,0,0-1.64,0,6.2,6.2,0,0,0-1.19.31c-.33.13-.62.26-.85.37a1.11,1.11,0,0,1-.6.13.93.93,0,0,1-.8-.63Zm.41,20.22a2.61,2.61,0,0,1,.33-1,2.53,2.53,0,0,1,.64-.73,2.49,2.49,0,0,1,.88-.43,2.59,2.59,0,0,1,1-.06,2.44,2.44,0,0,1,1,.34,2.86,2.86,0,0,1,.73.65,2.49,2.49,0,0,1,.43.88,2.68,2.68,0,0,1,.07,1,2.45,2.45,0,0,1-.35,1,2.37,2.37,0,0,1-.65.72,2.75,2.75,0,0,1-.88.42,2.72,2.72,0,0,1-1,0,2.77,2.77,0,0,1-1-.33,2.65,2.65,0,0,1-.73-.64,2.49,2.49,0,0,1-.41-.87A2.53,2.53,0,0,1,375.24,188.52Z"/><path class="cls-2" d="M354.55,314a12.3,12.3,0,0,1,1.58.1,9.46,9.46,0,0,1,1.64.37,9.62,9.62,0,0,1,1.66.74,10.46,10.46,0,0,1,1.65,1.17,8.53,8.53,0,0,1,1.75,2.07,6.2,6.2,0,0,1,.81,2.24,5.2,5.2,0,0,1-.19,2.25,5.8,5.8,0,0,1-1.21,2.11,5.85,5.85,0,0,1-3.52,2.06,7.16,7.16,0,0,1-1.72.1l-1.58-.11a12.28,12.28,0,0,0-1.35,0,1.75,1.75,0,0,0-1,.4l-1.91,1.61L349,327.2l1.59-2.27a2.25,2.25,0,0,1,1.09-.91,4.45,4.45,0,0,1,1.39-.25,12,12,0,0,1,1.56.08,11.12,11.12,0,0,0,1.63.07,5.57,5.57,0,0,0,1.56-.28,3.27,3.27,0,0,0,1.37-1,2.5,2.5,0,0,0,.61-2,2.86,2.86,0,0,0-.38-1,4,4,0,0,0-.81-.95,5.23,5.23,0,0,0-1.37-.91,5.72,5.72,0,0,0-1.17-.39c-.35-.07-.65-.13-.9-.16a1.16,1.16,0,0,1-.58-.22,1,1,0,0,1-.33-1Zm-10.7,17.16a2.65,2.65,0,0,1,.8-.62,2.55,2.55,0,0,1,2.81.37,2.56,2.56,0,0,1,.88,1.76,2.38,2.38,0,0,1-.12,1,2.42,2.42,0,0,1-.5.88,2.54,2.54,0,0,1-.81.63,2.48,2.48,0,0,1-1,.25,2.66,2.66,0,0,1-1-.14,2.42,2.42,0,0,1-.89-.51,2.8,2.8,0,0,1-.64-.82,2.4,2.4,0,0,1-.26-.93,2.64,2.64,0,0,1,.12-1A2.7,2.7,0,0,1,343.85,331.14Z"/><path class="cls-2" d="M85.14,314.83a12.29,12.29,0,0,1,.83-1.35,9.33,9.33,0,0,1,1.1-1.28,9,9,0,0,1,1.42-1.11,9.56,9.56,0,0,1,1.81-.91A8.56,8.56,0,0,1,93,309.6a6,6,0,0,1,2.36.34,5.12,5.12,0,0,1,1.9,1.22A6.51,6.51,0,0,1,99,315.43a6.37,6.37,0,0,1-.28,1.86,7,7,0,0,1-.72,1.56l-.83,1.35a9.59,9.59,0,0,0-.65,1.19,1.82,1.82,0,0,0-.13,1.09l.53,2.45-2.68,1-1.26-2.48a2.19,2.19,0,0,1-.28-1.38,4.31,4.31,0,0,1,.42-1.35,12.78,12.78,0,0,1,.8-1.34,11.71,11.71,0,0,0,.83-1.4,5.9,5.9,0,0,0,.48-1.51,3.22,3.22,0,0,0-.22-1.67,2.45,2.45,0,0,0-.6-.94,2.48,2.48,0,0,0-.89-.54,2.85,2.85,0,0,0-1.1-.15,3.87,3.87,0,0,0-1.22.26,5.58,5.58,0,0,0-1.45.79,6.11,6.11,0,0,0-.89.85c-.22.27-.41.51-.56.72a1.15,1.15,0,0,1-.46.41,1,1,0,0,1-1-.16Zm10.15,17.5a2.55,2.55,0,0,1,0-2,2.66,2.66,0,0,1,.56-.79,2.6,2.6,0,0,1,.88-.56,2.56,2.56,0,0,1,1-.17,2.81,2.81,0,0,1,1,.22,2.38,2.38,0,0,1,.8.56,2.49,2.49,0,0,1,.55.86,2.37,2.37,0,0,1,.17,1,2.5,2.5,0,0,1-.22.95,2.74,2.74,0,0,1-.57.79,2.77,2.77,0,0,1-.87.54,2.62,2.62,0,0,1-1,.18,2.31,2.31,0,0,1-.95-.2,2.53,2.53,0,0,1-.79-.56A2.77,2.77,0,0,1,95.29,332.33Z"/><path class="cls-2" d="M39.34,465.86a11.25,11.25,0,0,1,1.52-.47,8.85,8.85,0,0,1,1.66-.24,9.34,9.34,0,0,1,1.81.09,9.8,9.8,0,0,1,2,.51,8.6,8.6,0,0,1,2.38,1.3,6.26,6.26,0,0,1,1.55,1.81,5.1,5.1,0,0,1,.63,2.17,5.74,5.74,0,0,1-.38,2.4,5.82,5.82,0,0,1-1.11,2,6.23,6.23,0,0,1-1.44,1.22,7.24,7.24,0,0,1-1.56.71l-1.52.46a11.15,11.15,0,0,0-1.26.48,1.73,1.73,0,0,0-.82.73l-1.22,2.19-2.69-1,.68-2.69a2.28,2.28,0,0,1,.7-1.24,4.23,4.23,0,0,1,1.2-.73,13.72,13.72,0,0,1,1.49-.48,11.61,11.61,0,0,0,1.54-.52,5.13,5.13,0,0,0,1.35-.82,3.18,3.18,0,0,0,.94-1.4,2.54,2.54,0,0,0,.16-1.1,2.49,2.49,0,0,0-.31-1,3,3,0,0,0-.73-.84,4.22,4.22,0,0,0-1.09-.59,5.56,5.56,0,0,0-1.61-.37,5.88,5.88,0,0,0-1.23.06l-.9.17a1.15,1.15,0,0,1-.61,0,.93.93,0,0,1-.66-.78Zm-3.86,19.85a2.61,2.61,0,0,1,1.31-1.45,2.7,2.7,0,0,1,1-.23,2.64,2.64,0,0,1,1,.16,2.37,2.37,0,0,1,.87.54,2.5,2.5,0,0,1,.82,1.74,2.52,2.52,0,0,1-.16,1,2.4,2.4,0,0,1-.53.87,2.45,2.45,0,0,1-.8.57,2.49,2.49,0,0,1-.94.22,2.59,2.59,0,0,1-1-.16,2.69,2.69,0,0,1-.88-.53,2.31,2.31,0,0,1-.58-.79,2.4,2.4,0,0,1-.23-.93A2.79,2.79,0,0,1,35.48,485.71Z"/><path class="cls-2" d="M239.32,415.92a13,13,0,0,1,1.3-.91,9.27,9.27,0,0,1,1.52-.73,9.94,9.94,0,0,1,1.75-.46,10.1,10.1,0,0,1,2-.11,8.44,8.44,0,0,1,2.66.53,5.81,5.81,0,0,1,2,1.25,5,5,0,0,1,1.26,1.87,5.74,5.74,0,0,1,.37,2.41,5.81,5.81,0,0,1-.47,2.21,6.06,6.06,0,0,1-1,1.59,7.18,7.18,0,0,1-1.27,1.15l-1.31.9a9.81,9.81,0,0,0-1.06.84,1.77,1.77,0,0,0-.56,1l-.49,2.45-2.86-.12L243,427a2.19,2.19,0,0,1,.29-1.39,4.2,4.2,0,0,1,.93-1.06,11.32,11.32,0,0,1,1.26-.91,10.61,10.61,0,0,0,1.32-1,5.16,5.16,0,0,0,1-1.2,3.24,3.24,0,0,0,.47-1.61,2.44,2.44,0,0,0-.78-2,2.9,2.9,0,0,0-.95-.57,4,4,0,0,0-1.22-.24,5.45,5.45,0,0,0-1.64.14,6.19,6.19,0,0,0-1.16.42c-.31.16-.58.31-.8.44a1.1,1.1,0,0,1-.59.19.94.94,0,0,1-.86-.55ZM241.65,436a2.77,2.77,0,0,1,.24-1,2.54,2.54,0,0,1,.57-.79,2.6,2.6,0,0,1,.84-.5,2.33,2.33,0,0,1,1-.16,2.41,2.41,0,0,1,1,.24,2.69,2.69,0,0,1,.79.58,2.46,2.46,0,0,1,.51.84,2.42,2.42,0,0,1,.16,1,2.54,2.54,0,0,1-.24,1,2.44,2.44,0,0,1-.59.78,2.59,2.59,0,0,1-.83.5,2.48,2.48,0,0,1-1,.15,2.82,2.82,0,0,1-1-.24,2.39,2.39,0,0,1-.79-.57,2.42,2.42,0,0,1-.49-.82A2.66,2.66,0,0,1,241.65,436Z"/><path class="cls-2" d="M452.55,381.51a12.61,12.61,0,0,1,1.05-1.19,9.18,9.18,0,0,1,1.31-1.06,8.56,8.56,0,0,1,1.59-.86,9.6,9.6,0,0,1,1.94-.57,8.38,8.38,0,0,1,2.71-.12,6,6,0,0,1,2.26.74,5.06,5.06,0,0,1,1.66,1.53,5.82,5.82,0,0,1,.93,2.25,6.22,6.22,0,0,1,.06,2.26,6,6,0,0,1-.6,1.78,6.88,6.88,0,0,1-1,1.42l-1.05,1.18a10.19,10.19,0,0,0-.84,1.06,1.83,1.83,0,0,0-.32,1.06l.09,2.5-2.81.55-.81-2.66a2.21,2.21,0,0,1,0-1.41,4.39,4.39,0,0,1,.65-1.25,12.1,12.1,0,0,1,1-1.18,10.23,10.23,0,0,0,1.05-1.25,5.09,5.09,0,0,0,.74-1.4,3.24,3.24,0,0,0,.08-1.68,2.6,2.6,0,0,0-.44-1,2.46,2.46,0,0,0-.78-.69,2.76,2.76,0,0,0-1.06-.34,4,4,0,0,0-1.24.05,5.47,5.47,0,0,0-1.56.53,6.34,6.34,0,0,0-1,.68c-.27.23-.49.44-.68.62a1,1,0,0,1-.52.31.91.91,0,0,1-1-.33Zm7,19a2.91,2.91,0,0,1,0-1,2.56,2.56,0,0,1,.37-.9,2.66,2.66,0,0,1,.69-.69,2.7,2.7,0,0,1,1-.39,2.55,2.55,0,0,1,1,0,2.78,2.78,0,0,1,.9.38,2.55,2.55,0,0,1,.7.69,2.68,2.68,0,0,1,.39.94,2.38,2.38,0,0,1,0,1,2.57,2.57,0,0,1-.38.9,2.83,2.83,0,0,1-.7.68,2.67,2.67,0,0,1-1,.38,2.55,2.55,0,0,1-1,0,2.24,2.24,0,0,1-.9-.36,2.35,2.35,0,0,1-.68-.69A2.58,2.58,0,0,1,459.52,400.5Z"/><path class="cls-2" d="M402.46,1.1A10.52,10.52,0,0,1,403-.38a9,9,0,0,1,.86-1.44,8.89,8.89,0,0,1,1.21-1.35,9.46,9.46,0,0,1,1.62-1.2,8.59,8.59,0,0,1,2.51-1,6,6,0,0,1,2.38-.07,5,5,0,0,1,2.08.87,5.83,5.83,0,0,1,1.64,1.8,6.15,6.15,0,0,1,.83,2.1,6.36,6.36,0,0,1,0,1.89,7,7,0,0,1-.43,1.66c-.21.52-.41,1-.59,1.47a9.48,9.48,0,0,0-.42,1.28,1.78,1.78,0,0,0,.05,1.1L415.76,9l-2.45,1.48-1.67-2.22A2.27,2.27,0,0,1,411.12,7a4,4,0,0,1,.19-1.39,10.07,10.07,0,0,1,.55-1.46,10.86,10.86,0,0,0,.57-1.53A5.26,5.26,0,0,0,412.64,1a3.31,3.31,0,0,0-.5-1.61,2.5,2.5,0,0,0-1.73-1.2,2.8,2.8,0,0,0-1.11.05,3.63,3.63,0,0,0-1.15.47,5.47,5.47,0,0,0-1.29,1,6.22,6.22,0,0,0-.73,1c-.18.31-.32.58-.43.81a1,1,0,0,1-.39.48.91.91,0,0,1-1,0Zm13,15.47a2.57,2.57,0,0,1-.34-1,2.43,2.43,0,0,1,0-1,2.64,2.64,0,0,1,.42-.88,2.59,2.59,0,0,1,.77-.7,2.51,2.51,0,0,1,1-.34,2.62,2.62,0,0,1,1,0,2.35,2.35,0,0,1,.89.42,2.48,2.48,0,0,1,.69.75,2.52,2.52,0,0,1,.35,1,2.55,2.55,0,0,1-.48,1.85,2.82,2.82,0,0,1-1.74,1,2.42,2.42,0,0,1-1,0,2.5,2.5,0,0,1-.87-.42A2.54,2.54,0,0,1,415.48,16.57Z"/></pattern></defs><title>Hocus404BGAsset 5</title><g id="Layer_2" data-name="Layer 2"><g id="Layer_1-2" data-name="Layer 1"><rect class="cls-3" width="500" height="500"/></g></g></svg>