<svg xmlns="http://www.w3.org/2000/svg" xmlns:xlink="http://www.w3.org/1999/xlink" viewBox="0 0 500 500"><defs><style>.cls-1{fill:none;}.cls-2{fill:#f4f4f4;}.cls-3{fill:url(#New_Pattern);}</style><pattern id="New_Pattern" data-name="New Pattern" width="500" height="500" patternUnits="userSpaceOnUse" viewBox="0 0 500 500"><rect class="cls-1" width="500" height="500"/><path class="cls-2" d="M418.58,495.93l-11.51.91a5,5,0,0,0-4.12,2.83h0a5,5,0,0,0,.39,5l6.54,9.52a5,5,0,0,0,8.64-.68l5-10.42a5,5,0,0,0-4.91-7.14Z"/><path class="cls-2" d="M33.26,472.35a4.93,4.93,0,0,0-.46,5l4.82,10.49a5,5,0,0,0,8.63.8l6.67-9.42a5,5,0,0,0-3.62-7.87l-11.5-1.06A4.92,4.92,0,0,0,33.26,472.35Zm10.27,14.34a1.63,1.63,0,0,1-1.52.69,1.61,1.61,0,0,1-1.36-1l-4.82-10.49a1.62,1.62,0,0,1,.15-1.66,1.65,1.65,0,0,1,1.51-.7L49,474.64a1.67,1.67,0,0,1,1.21,2.62l-6.67,9.43Z"/><path class="cls-2" d="M418.58-4.07l-11.51.91A5,5,0,0,0,403-.33h0a5,5,0,0,0,.39,5l6.54,9.52a5,5,0,0,0,8.64-.68l5-10.42a4.94,4.94,0,0,0-.4-5A4.94,4.94,0,0,0,418.58-4.07Z"/><path class="cls-2" d="M143.8,50.24l-7.22-9a5,5,0,0,0-4.66-1.81h0a4.93,4.93,0,0,0-3.9,3.13l-4.19,10.76a5,5,0,0,0,5.42,6.75l11.41-1.75a5,5,0,0,0,3.14-8.07Z"/><path class="cls-2" d="M210.91,259.57l9-7.3a4.94,4.94,0,0,0,1.77-4.67h0a5,5,0,0,0-3.16-3.88l-10.8-4.09a5,5,0,0,0-6.7,5.47l1.85,11.4a5,5,0,0,0,8.09,3.07Z"/><path class="cls-2" d="M391.21,181.52l-5.78-10a5,5,0,0,0-4.33-2.5h0a5,5,0,0,0-4.33,2.5l-5.77,10a5,5,0,0,0,4.33,7.5h11.55a5,5,0,0,0,4.33-7.5Z"/><path class="cls-2" d="M99.76,317.4l-11.37-2a5,5,0,0,0-4.7,1.7h0a5,5,0,0,0-.88,4.92l3.93,10.86a5,5,0,0,0,8.53,1.52l7.44-8.83a5,5,0,0,0-2.95-8.14Z"/><path class="cls-2" d="M473.44,392.56l-5.78-10a5,5,0,0,0-4.33-2.5h0a5,5,0,0,0-4.33,2.5l-5.77,10a5,5,0,0,0,4.33,7.5h11.55a5,5,0,0,0,4.33-7.5Z"/><path class="cls-2" d="M254.67,430.17l-3.51-11a4.94,4.94,0,0,0-3.69-3.36h0a4.94,4.94,0,0,0-4.77,1.52l-7.77,8.53a5,5,0,0,0,2.63,8.26l11.28,2.46a5,5,0,0,0,5.83-6.4Z"/><path class="cls-2" d="M364.44,323.13a4.94,4.94,0,0,0-3.21-3.83l-10.85-4a5,5,0,0,0-6.64,5.56l2,11.37a5,5,0,0,0,8.13,3l8.85-7.41A5,5,0,0,0,364.44,323.13ZM347,320.32a1.67,1.67,0,0,1,2.21-1.85l10.84,4a1.67,1.67,0,0,1,.5,2.84l-8.85,7.42a1.63,1.63,0,0,1-1.64.29A1.66,1.66,0,0,1,349,331.7l-2-11.38Z"/><path class="cls-2" d="M323.73,93.75a4.94,4.94,0,0,0,.68-5l-4.35-10.7a5,5,0,0,0-8.58-1.18L304.39,86a5,5,0,0,0,3.27,8l11.44,1.58A5,5,0,0,0,323.73,93.75ZM314.11,79a1.63,1.63,0,0,1,1.54-.63,1.65,1.65,0,0,1,1.32,1l4.35,10.7a1.66,1.66,0,0,1-1.77,2.28l-11.44-1.58A1.67,1.67,0,0,1,307,88.09L314.11,79Z"/><path class="cls-2" d="M81.15,163.05a5,5,0,0,0,1.14-4.87L79,147.13a5,5,0,0,0-8.43-2l-7.91,8.42a5,5,0,0,0,2.51,8.29l11.24,2.64A5,5,0,0,0,81.15,163.05ZM73,147.43a1.62,1.62,0,0,1,1.59-.48,1.65,1.65,0,0,1,1.22,1.14l3.34,11a1.67,1.67,0,0,1-2,2.11l-11.24-2.63a1.67,1.67,0,0,1-.83-2.77l7.9-8.42Z"/></pattern></defs><title>HocusBGAsset 2</title><g id="Layer_2" data-name="Layer 2"><g id="Layer_1-2" data-name="Layer 1"><rect class="cls-3" width="500" height="500"/></g></g></svg>